 http://imageshack.us/m/708/2292/351cd818823ead5f3c10549.jpg

Country.......: USA
Genre.........: Action, Adventure, Fantasy, Romance
Date release..: 10.05.2010 [World]
Director......: Mike Newell
Writers.......: Boaz Yakin, Doug Miro
Duration......: 111 min.
More..........: http://www.imdb.com/title/tt0473075
Trailer.......: http://www.imdb.com/video/imdb/vi3849520153
Trailer.......:

Pilot :
A young fugitive prince and princess must stop a villain who unknowingly threatens to destroy the world with a special dagger that enables the magic sand inside to reverse time. 

Cats :
Jake Gyllenhaal   	 ...  	Dastan
Gemma Arterton 	... 	Tamina
Ben Kingsley 	... 	Nizam
Alfred Molina 	... 	Sheik Amar
Steve Toussaint 	... 	Seso
Toby Kebbell 	... 	Garsiv
Richard Coyle 	... 	Tus
Ronald Pickup 	... 	King Sharaman
Reece Ritchie 	... 	Bis
Gisli Orn Garoarsson 	... 	Hassansin Leader
Claudio Pacifico 	... 	Hassansin Porcupine
Thomas DuPont 	... 	Hassansin Whip Man
Dave Pope 	... 	Hassansin Giant Scimitar
Domonkos Pardanyi 	... 	Hassansin Double Bladed Halberd
Massimilano Ubaldi 	... 	Hassansin Long Razor

Data Technical :
!!! SAMPLE !!!
Audio.....: English
Subtitles.: English .srt, Spanish .srt, Swedish .srt, Dutch .srt, Polish .txt
Format                           : AVI
Format/Info                      : Audio Video Interleave
File size                        : 702 MiB
Duration                         : 1h 51mn
Overall bit rate                 : 883 Kbps
Writing application              : VirtualDubMod 1.5.4.1 (build 2178/release)
Writing library                  : VirtualDubMod build 2178/release
Video
ID                               : 0
Format                           : MPEG-4 Visual
Format profile                   : Advanced Simple@L5
Format settings, BVOP            : Yes
Format settings, QPel            : No
Format settings, GMC             : No warppoints
Format settings, Matrix          : Default (H.263)
Muxing mode                      : Packed bitstream
Codec ID                         : DX50
Codec ID/Hint                    : DivX 5
Duration                         : 1h 51mn
Bit rate                         : 761 Kbps
Width                            : 640 pixels
Height                           : 272 pixels
Display aspect ratio             : 2.35:1
Frame rate                       : 25.000 fps
Color space                      : YUV
Chroma subsampling               : 4:2:0
Bit depth                        : 8 bits
Scan type                        : Progressive
Bits/(Pixel*Frame)               : 0.175
Stream size                      : 605 MiB (86%)
Writing library                  : XviD 1.2.1 (UTC 2008-12-04)
Audio
ID                               : 1
Format                           : MPEG Audio
Format version                   : Version 1
Format profile                   : Layer 3
Mode                             : Joint stereo
Mode extension                   : MS Stereo
Codec ID                         : 55
Codec ID/Hint                    : MP3
Duration                         : 1h 51mn
Bit rate mode                    : Constant
Bit rate                         : 112 Kbps
Channel(s)                       : 2 channels
Sampling rate                    : 44.1 KHz
Stream size                      : 89.0 MiB (13%)
Alignment                        : Split accross interleaves
Interleave, duration             : 40 ms (1.00 video frame)
Interleave, preload duration     : 500 ms
Writing library                  : LAME3.90.3

Screen : 
http://imageshack.us/m/863/3277/princeofpersiathesandso.jpg 
http://imageshack.us/m/843/9506/princeofpersiathesandsowa.jpg 
http://imageshack.us/m/848/406/princeofpersiathesandsom.jpg 
http://imageshack.us/m/541/4127/princeofpersiathesandsoa.jpg 
http://imageshack.us/m/685/7153/princeofpersiathesandsoys.jpg